<svg xmlns="http://www.w3.org/2000/svg" viewBox="0 0 500 500">
  <!-- Fond papyrus clair -->
  <rect width="500" height="500" fill="#f2e8d5"/>
  
  <!-- Texture légère papyrus -->
  <rect width="500" height="500" fill="#e6dcc6" opacity="0.15"/>
  
  <!-- Motif de texture subtil -->
  <pattern id="paperTexture" patternUnits="userSpaceOnUse" width="100" height="100" patternTransform="rotate(45)">
    <rect width="100" height="100" fill="#e9e0cc" opacity="0.1"/>
    <line x1="0" y1="0" x2="100" y2="0" stroke="#d8ceb7" stroke-width="0.5" opacity="0.2"/>
    <line x1="0" y1="25" x2="100" y2="25" stroke="#d8ceb7" stroke-width="0.5" opacity="0.1"/>
    <line x1="0" y1="50" x2="100" y2="50" stroke="#d8ceb7" stroke-width="0.5" opacity="0.2"/>
    <line x1="0" y1="75" x2="100" y2="75" stroke="#d8ceb7" stroke-width="0.5" opacity="0.1"/>
  </pattern>
  <rect width="500" height="500" fill="url(#paperTexture)"/>
  
  <!-- Éléments forestiers subtils -->
  <!-- Coin supérieur gauche -->
  <g transform="translate(60, 70) scale(0.7)">
    <path d="M0,0 L0,-20 C0,-30 30,-30 30,-20 L30,0 Z" fill="#d3ad7e" opacity="0.7"/>
    <path d="M-5,-20 C-5,-35 35,-35 35,-20 C35,-10 -5,-10 -5,-20 Z" fill="#a8534b" opacity="0.7"/>
    <circle cx="15" cy="-25" r="2" fill="#f2e8d5" opacity="0.7"/>
    <circle cx="5" cy="-22" r="1.5" fill="#f2e8d5" opacity="0.7"/>
    <circle cx="25" cy="-22" r="1.5" fill="#f2e8d5" opacity="0.7"/>
  </g>
  
  <!-- Petit groupe de champignons en haut à droite -->
  <g transform="translate(380, 120) scale(0.5)">
    <path d="M0,0 L0,-25 C0,-35 40,-35 40,-25 L40,0 Z" fill="#d3ad7e" opacity="0.7"/>
    <path d="M-10,-25 C-10,-45 50,-45 50,-25 C50,-15 -10,-15 -10,-25 Z" fill="#7c9a6e" opacity="0.7"/>
  </g>
  <g transform="translate(410, 110) scale(0.4)">
    <path d="M0,0 L0,-15 C0,-25 25,-25 25,-15 L25,0 Z" fill="#d3ad7e" opacity="0.7"/>
    <path d="M-5,-15 C-5,-30 30,-30 30,-15 C30,-5 -5,-5 -5,-15 Z" fill="#d2692e" opacity="0.7"/>
  </g>
  
  <!-- Milieu gauche -->
  <g transform="translate(80, 250) scale(0.6)">
    <path d="M0,0 L0,-20 C0,-30 20,-30 20,-20 L20,0 Z" fill="#c8a077" opacity="0.7"/>
    <ellipse cx="10" cy="-20" rx="15" ry="10" fill="#9e7d63" opacity="0.7"/>
  </g>
  
  <!-- Milieu bas -->
  <g transform="translate(240, 390) scale(0.65)">
    <path d="M0,0 L0,-30 C0,-40 35,-40 35,-30 L35,0 Z" fill="#d3ad7e" opacity="0.7"/>
    <path d="M-10,-30 C-10,-50 45,-50 45,-30 C45,-20 -10,-20 -10,-30 Z" fill="#c1594d" opacity="0.7"/>
    <circle cx="17" cy="-38" r="3" fill="#f2e8d5" opacity="0.7"/>
    <circle cx="30" cy="-35" r="2" fill="#f2e8d5" opacity="0.7"/>
    <circle cx="7" cy="-35" r="2" fill="#f2e8d5" opacity="0.7"/>
  </g>
  
  <!-- Coin inférieur droit -->
  <g transform="translate(420, 420) scale(0.5)">
    <path d="M0,0 L0,-25 C0,-35 30,-35 30,-25 L30,0 Z" fill="#c8a077" opacity="0.7"/>
    <path d="M-5,-25 C-5,-40 35,-40 35,-25 C35,-15 -5,-15 -5,-25 Z" fill="#8b734a" opacity="0.7"/>
  </g>
  
  <!-- Coin supérieur droit - fougère stylisée -->
  <g transform="translate(450, 50)">
    <path d="M0,0 C-5,-10 -10,-15 -15,-10 C-20,-15 -25,-10 -30,-15" stroke="#5b6d43" fill="none" stroke-width="0.8" opacity="0.6"/>
    <path d="M-5,-5 C-10,-15 -15,-20 -20,-15 C-25,-20 -30,-15 -35,-20" stroke="#5b6d43" fill="none" stroke-width="0.8" opacity="0.6"/>
  </g>
  
  <!-- Coin inférieur gauche - fougère stylisée -->
  <g transform="translate(50, 450)">
    <path d="M0,0 C5,-10 10,-15 15,-10 C20,-15 25,-10 30,-15" stroke="#5b6d43" fill="none" stroke-width="0.8" opacity="0.6"/>
    <path d="M5,-5 C10,-15 15,-20 20,-15 C25,-20 30,-15 35,-20" stroke="#5b6d43" fill="none" stroke-width="0.8" opacity="0.6"/>
  </g>
  
  <!-- Herbes discrètes -->
  <path d="M150,80 C155,65 160,75 165,60" stroke="#5b6d43" fill="none" stroke-width="0.8" opacity="0.5"/>
  <path d="M350,180 C355,165 360,175 365,160" stroke="#5b6d43" fill="none" stroke-width="0.8" opacity="0.5"/>
  <path d="M120,350 C125,335 130,345 135,330" stroke="#5b6d43" fill="none" stroke-width="0.8" opacity="0.5"/>
  <path d="M400,320 C405,305 410,315 415,300" stroke="#5b6d43" fill="none" stroke-width="0.8" opacity="0.5"/>
  
  <!-- Points de spores délicats -->
  <circle cx="100" cy="100" r="0.8" fill="#8b734a" opacity="0.4"/>
  <circle cx="110" cy="105" r="0.6" fill="#8b734a" opacity="0.4"/>
  <circle cx="105" cy="95" r="0.7" fill="#8b734a" opacity="0.4"/>
  
  <circle cx="300" cy="200" r="0.8" fill="#8b734a" opacity="0.4"/>
  <circle cx="310" cy="205" r="0.6" fill="#8b734a" opacity="0.4"/>
  <circle cx="305" cy="195" r="0.7" fill="#8b734a" opacity="0.4"/>
  
  <circle cx="200" cy="400" r="0.8" fill="#8b734a" opacity="0.4"/>
  <circle cx="210" cy="405" r="0.6" fill="#8b734a" opacity="0.4"/>
  <circle cx="205" cy="395" r="0.7" fill="#8b734a" opacity="0.4"/>
  
  <circle cx="400" cy="100" r="0.8" fill="#8b734a" opacity="0.4"/>
  <circle cx="410" cy="105" r="0.6" fill="#8b734a" opacity="0.4"/>
  <circle cx="405" cy="95" r="0.7" fill="#8b734a" opacity="0.4"/>
  
  <!-- Motif central discret -->
  <g transform="translate(250, 250) scale(0.8)" opacity="0.3">
    <path d="M0,0 L0,-20 C0,-30 30,-30 30,-20 L30,0 Z" fill="#d3ad7e"/>
    <path d="M-5,-20 C-5,-35 35,-35 35,-20 C35,-10 -5,-10 -5,-20 Z" fill="#a8534b"/>
  </g>
  
  <!-- Taches organiques très discrètes -->
  <ellipse cx="150" cy="150" rx="30" ry="20" fill="#e6dcc6" opacity="0.2"/>
  <ellipse cx="350" cy="350" rx="40" ry="25" fill="#e6dcc6" opacity="0.2"/>
  <ellipse cx="100" cy="400" rx="35" ry="15" fill="#e6dcc6" opacity="0.2"/>
  <ellipse cx="400" cy="200" rx="25" ry="35" fill="#e6dcc6" opacity="0.2"/>
</svg>
